This wide screen version of this movie is dedicated to all those who love this movie.

Enjoy!!-PRAnESH



Video 
ID : 1 

Format : AVC 

Format profile : High@L4.1 

Format settings, CABAC : Yes 

Format settings, ReFrames : 3 frames 

Duration : 1h 20mn 

Bit rate mode : Variable 

Bit rate : 3 031 Kbps 

Nominal bit rate : 3 173 Kbps 

Maximum bit rate : 14.7 Mbps 

Width : 720 pixels 

Height : 436 pixels 

Display aspect ratio : 2.35:1 

Frame rate mode : Constant 

Frame rate : 25.000 fps 

Resolution : 8 bits 

Colorimetry : 4:2:0 

Scan type : Progressive 

Bits/(Pixel*Frame) : 0.386 

Stream size : 1.69 GiB (84%) 


Audio #1 
 
Format : AC-3 

Format/Info : Audio Coding 3 

Duration : 1h 20mn 

Bit rate mode : Constant 

Bit rate : 384 Kbps 

Channel(s) : 6 channels 

Channel positions : Front: L C R, Surround: L R, LFE 

Sampling rate : 48.0 KHz 

Resolution : 16 bits 

Stream size : 220 MiB (11%) 

Title : Eng Track 

Language : English 
 

Audio #2 
 
Format : AC-3 
 
Format profile : Dolby Digital 
 
Duration : 1h 20mn 

Bit rate mode : Constant 

Bit rate : 192 Kbps 

Channel(s) : 2 channels 

Channel positions : L R 

Sampling rate : 48.0 KHz 

Resolution : 16 bits 

Stream size : 110 MiB (5%) 

Title : Directors' Comments on making this film 

Language : English 
